<?xml version="1.0" encoding="UTF-8"?>
<svg width="500px" height="500px" viewBox="0 0 500 500" version="1.1" xmlns="http://www.w3.org/2000/svg" xmlns:xlink="http://www.w3.org/1999/xlink">
    <title>memo</title>
    <defs>
        <rect id="path-1" x="0" y="0" width="500" height="500"></rect>
    </defs>
    <g id="页面-1" stroke="none" stroke-width="1" fill="none" fill-rule="evenodd">
        <g id="memo">
            <rect id="矩形" fill-rule="nonzero" x="0" y="0" width="500" height="500"></rect>
            <g id="编组-Clipped">
                <mask id="mask-2" fill="white">
                    <use xlink:href="#path-1"></use>
                </mask>
                <g id="path-1"></g>
                <g id="编组" mask="url(#mask-2)">
                    <g transform="translate(16.437156, 38.019448)">
                        <g transform="translate(-0.000000, -0.000000)">
                            <path d="M181.891676,539.771786 C169.681269,539.859401 157.525271,538.12867 145.8265,534.629847 C110.246506,523.693042 82.6113623,497.77625 63.6690585,457.647677 C46.4653226,421.259047 40.5420621,381.635871 38.6013352,354.809364 C37.6319457,345.333314 37.4088838,335.795728 37.9342103,326.284721 L17.7183044,293.150851 C-2.49760146,261.128856 -0.476010875,230.178304 23.398974,210.386932 C30.7939407,204.296978 40.1003131,201.011112 49.6796516,201.107832 C52.6427812,201.110717 55.5995885,201.381363 58.5140025,201.916468 C59.2417751,199.146889 59.9695477,196.357094 60.7377521,193.526867 C89.323043,87.8583269 125.752105,36.6716533 129.815502,31.1931428 C142.268501,13.3020661 155.65143,4.1442607 169.47911,4.04318117 L169.701485,4.04318117 C177.787847,4.04318117 189.917391,7.29794202 200.894628,22.8035418 L228.266964,63.0938422 C236.785794,62.1440486 245.349399,61.651422 253.920949,61.6180811 L255.942539,61.6180811 C272.031589,61.6531646 288.095011,62.9033678 303.995748,65.3580237 C339.656605,70.7556706 363.834829,80.6412485 376.1261,86.7262362 L432.488045,49.0235717 C441.965396,41.4751404 453.614727,37.1668721 465.722995,36.732301 L466.046449,36.732301 C475.662137,36.4821616 484.961235,40.1784249 491.781297,46.9615493 C499.584637,54.8457526 503.385227,66.1868758 503.102204,80.6614644 C502.374432,117.474629 502.617023,150.285044 505.993079,237.21344 C506.094159,240.185178 506.215454,243.03562 506.316533,245.764768 C518.49981,234.529981 532.454526,225.383939 547.617629,218.69567 C553.87513,215.884984 560.650452,214.411489 567.510081,214.369466 L567.853751,214.369466 C593.992775,214.488727 615.676316,234.625326 617.726391,260.684106 L617.82747,262.018356 C619.240308,282.929945 607.316173,302.460576 588.069657,310.758905 C586.593896,311.405814 585.138351,312.113371 583.763669,312.780496 C572.30125,318.946347 567.105762,326.648607 565.852376,339.364412 L565.852376,340.435855 C560.576025,394.169733 554.571901,455.080257 508.075317,492.863785 C495.749895,502.836426 481.617029,510.33872 466.450767,514.95977 C428.788534,536.186472 378.329633,538.309142 333.95572,538.61238 L181.891676,539.771786 Z" id="路径" fill="#3A3C51" fill-rule="nonzero"></path>
                            <path d="M169.701485,8.08636235 C176.938779,8.08636235 187.592561,11.0783164 197.599435,25.128371 L197.599435,25.128371 L197.599435,25.128371 L226.204942,67.2381029 C235.372424,66.0915188 244.601213,65.5041709 253.840085,65.4793191 L255.861676,65.4793191 C271.720072,65.5200247 287.553089,66.7499048 303.227543,69.158614 C341.051503,74.8999313 365.775556,85.8165204 376.247395,91.2141673 L434.691579,52.1166053 C443.547482,45.099049 454.42906,41.1221334 465.722995,40.7754821 L466.006017,40.7754821 C474.538912,40.5323461 482.799935,43.7900088 488.870207,49.7917762 C495.86491,56.8875591 499.281398,67.2381029 498.97816,80.5806008 C498.250387,117.474629 498.492978,150.345692 501.869034,237.354951 C502.111625,243.844257 502.354216,249.727085 502.596807,255.124732 C515.75145,241.210706 531.56176,230.074749 549.09339,222.374965 C554.815178,219.789156 561.009273,218.41269 567.287706,218.331783 L567.61116,218.331783 C591.649585,218.408483 611.596486,236.938775 613.440619,260.906481 L613.541698,262.260947 C614.838715,281.476916 603.866089,299.418861 586.169362,307.018963 C584.572305,307.706303 583.035896,308.474508 581.580351,309.262928 C568.925194,316.075688 562.941286,324.970687 561.546388,339.000526 L561.445309,340.071969 C556.249821,393.037642 550.346776,453.038451 505.123795,489.669672 C493.102022,499.429395 479.283198,506.737162 464.449392,511.179396 C428.202273,531.779404 378.733952,534.205313 333.551402,534.508551 L182.538585,535.546817 L181.891676,535.546817 C170.085789,535.633721 158.332024,533.964346 147.019238,530.586666 C112.652198,519.993531 85.7448277,494.804512 67.3281374,455.787814 C50.3872083,419.904581 44.5448115,380.827235 42.6243004,354.28375 C41.6490431,344.584598 41.4462455,334.823272 42.0178233,325.091982 L21.2156561,290.927101 C2.15205689,260.76497 3.93105661,231.755145 26.0068258,213.378887 C32.690449,207.864327 41.1166872,204.905113 49.7807311,205.029717 C53.7581535,205.046883 57.7177053,205.563051 61.5666043,206.566126 C62.5773995,202.522945 63.5881948,198.479764 64.7405015,194.436583 C93.406656,88.6871791 130.361332,37.3994259 133.171343,33.5988356 C144.856136,16.758986 157.08676,8.16722597 169.559973,8.08636235 L169.762132,8.08636235 M164.768804,18.5986334 L164.586861,18.5986334 L164.768804,18.5986334 L164.970963,18.5986334 L164.768804,18.5986334 M163.050452,19.1444629 L162.807861,19.2455424 L163.050452,19.1444629 L163.45477,19.0029515 L163.050452,19.1444629 M161.028861,19.973315 L161.028861,19.973315 L161.352316,19.8115878 L161.736418,19.6498605 L161.028861,19.973315 M159.310509,20.8628149 C159.310509,20.8628149 159.532884,20.7415194 159.65418,20.6606558 L160.058498,20.4584967 L159.310509,20.8628149 M158.299714,21.4490761 L157.976259,21.6512352 L157.632589,21.8533943 L157.976259,21.6512352 L158.299714,21.4490761 M471.140857,50.9642987 L470.53438,50.8430033 L471.140857,50.9642987 M473.465686,51.5101282 L472.717698,51.3079691 L473.465686,51.5101282 M475.143607,52.0761736 L475.527709,52.2176849 L475.143607,52.0761736 L474.77972,51.9346622 L475.143607,52.0761736 M477.44822,53.1274006 C477.238824,53.007528 477.022846,52.899539 476.801311,52.8039461 C477.022846,52.899539 477.238824,53.007528 477.44822,53.1274006 M479.267651,54.2190596 L478.984629,54.0371164 L479.267651,54.2190596 M481.450969,55.9778434 L481.450969,55.9778434 L480.965788,55.5128775 L481.450969,55.9778434 M483.088458,57.6759795 L482.542628,57.0290705 L483.088458,57.6759795 M484.523787,59.5156269 C484.341844,59.273036 484.180117,59.0304452 483.998173,58.8080702 C484.180117,59.0304452 484.341844,59.273036 484.523787,59.5156269 M485.777173,61.5372175 L485.777173,61.5372175 L485.352639,60.8296608 L485.777173,61.5372175 M488.021139,67.1976711 L487.778548,66.3283872 L488.021139,67.1976711 M488.728695,70.2098411 C488.728695,69.8459548 488.587184,69.4618526 488.50632,69.1181822 C488.50632,69.4618526 488.647832,69.8459548 488.728695,70.2098411 M489.213877,73.3635224 C489.213877,72.9592043 489.112798,72.5751021 489.05215,72.1909999 C489.05215,72.5751021 489.153229,72.9592043 489.213877,73.3635224 M489.476684,76.5980674 C489.476684,76.2341811 489.476684,75.8702947 489.476684,75.5064084 C489.476684,75.8702947 489.476684,76.2341811 489.476684,76.5980674 M276.03715,75.9309425 L275.188082,75.9309425 L276.03715,75.9309425 M237.849303,75.9309425 L237.303474,75.9309425 L237.849303,75.9309425 M235.180804,76.1331015 L234.796702,76.1331015 L235.180804,76.1331015 M282.708399,76.5172037 L281.374149,76.3959083 L282.708399,76.5172037 M288.490148,77.0832491 L287.903886,77.0832491 L288.490148,77.0832491 M295.464635,77.8514535 L294.35276,77.7099422 L295.040101,77.7099422 L295.464635,77.7099422 M93.9727014,134.880524 C96.2368828,128.815752 98.5010643,122.95314 100.74503,117.434197 L100.74503,117.434197 C98.5010643,122.95314 96.2368828,128.755105 93.9727014,134.880524 M571.351103,228.41952 L570.825489,228.41952 L571.351103,228.41952 M574.484568,228.844055 L573.999386,228.844055 L574.484568,228.844055 M560.555809,228.985566 L560.35365,228.985566 L560.35365,228.985566 L560.555809,228.985566 M577.840408,229.652691 L577.840408,229.652691 L577.840408,229.652691 L577.335011,229.511179 L577.840408,229.652691 M584.066907,232.098815 L583.500862,231.836009 L584.066907,232.098815 M586.796055,233.615008 L586.957782,233.615008 L586.796055,233.615008 L586.634328,233.513929 L586.796055,233.615008 M589.626282,235.636599 L589.201748,235.33336 L589.626282,235.636599 M592.314997,237.880564 L591.890463,237.476246 L592.314997,237.880564 M596.823144,242.853677 C596.706521,242.676836 596.578201,242.507994 596.439042,242.34828 C596.580553,242.510007 596.701849,242.69195 596.823144,242.853677 M600.360928,248.554563 C600.259848,248.37262 600.158769,248.190676 600.077905,248.008733 C600.077905,248.190676 600.259848,248.37262 600.360928,248.554563 M601.776041,251.829539 C601.776041,251.647596 601.654746,251.485869 601.573882,251.303926 C601.573882,251.485869 601.695177,251.647596 601.776041,251.829539 M602.705973,254.63955 C602.705973,254.74063 602.705973,254.841709 602.705973,254.942789 C602.705973,255.043869 602.705973,254.74063 602.705973,254.63955 L602.705973,254.498039 L602.705973,254.63955 M603.494393,258.015607 C603.494393,258.237982 603.494393,258.460357 603.494393,258.682732 C603.494393,258.460357 603.494393,258.237982 603.494393,258.015607 L603.494393,258.015607 M51.6001627,341.10298 C51.6001627,342.214855 51.6001627,343.286298 51.6001627,344.236445 L51.6001627,344.236445 C51.6001627,347.390127 51.8831853,349.714956 52.0246967,351.27158 C52.166208,352.828205 52.2672876,353.576194 52.2672876,353.576194 C53.6671303,373.249799 56.874773,392.752808 61.8496269,411.838434 C63.4871153,417.903206 65.3267627,424.129705 67.429217,430.194477 L67.429217,430.194477 C65.4076264,424.129705 63.4871153,418.064933 61.8496269,411.838434 C56.8737231,392.672362 53.6795079,373.087492 52.3077194,353.333603 C52.3077194,353.333603 52.1864239,352.565398 52.0651285,351.02899 C51.9438331,349.492581 51.741674,347.147536 51.6405945,343.993854 L51.6405945,343.993854 C51.6405945,343.043707 51.6405945,341.972264 51.6405945,340.860389 L51.6405945,340.860389 M494.773251,485.788218 C496.329876,484.656127 497.866285,483.483605 499.362262,482.270651 C498.452546,483.018639 497.502399,483.70598 496.572467,484.413537 L495.137138,485.505195 L494.773251,485.788218 M169.701485,0 L169.458894,0 C154.256533,0 139.842592,9.82493026 126.601173,28.8885295 C122.052595,34.9330854 85.6639641,86.6858044 56.9371618,192.455424 C56.5126278,194.05248 56.0678779,195.689969 55.6231279,197.388105 C53.6832849,197.17062 51.7327267,197.062631 49.7807311,197.06465 C39.2295996,196.93466 28.9759569,200.560337 20.8517698,207.293899 C8.58848958,217.111617 1.05315393,231.660838 0.110250395,247.341608 C-0.819681275,262.503538 4.15343157,279.080581 14.2613845,295.313953 L33.7697337,327.356164 C33.3348865,336.655829 33.6052055,345.975075 34.5783699,355.233898 C36.5999605,382.404076 42.5636527,422.451785 60.0099795,459.406461 C79.457681,500.626693 107.921676,527.251041 144.653977,538.531517 C156.731791,542.151569 169.283374,543.943678 181.891676,543.855269 L182.882255,543.855269 L333.874856,542.817289 C378.612656,542.51405 429.496091,540.350948 467.946744,518.86144 C483.45771,514.081822 497.909641,506.375498 510.521442,496.158978 C558.332059,457.324223 564.417047,395.524198 569.774262,340.981684 L569.895557,339.930457 C571.007432,328.589334 575.434716,322.019165 585.68418,316.500222 C586.957782,315.812882 588.312248,315.165973 589.727361,314.478632 C610.577948,305.503564 623.489108,284.34158 621.931299,261.694902 L621.83022,260.340436 C619.602418,232.188155 596.174593,210.438768 567.934615,210.306069 L567.550512,210.306069 C560.141615,210.361077 552.824539,211.951147 546.061004,214.975943 C533.125348,220.721561 521.03284,228.202865 510.117124,237.21344 L510.117124,237.21344 C506.761283,150.40634 506.518693,117.636356 507.246465,80.9040553 C507.56992,65.297376 503.365011,52.9858893 494.773251,44.2728339 C487.192488,36.7146317 476.849166,32.5875293 466.147529,32.850847 L465.722995,32.850847 C452.725863,33.2553649 440.202884,37.8265714 430.001489,45.8901063 L375.68135,82.2787369 C362.601659,76.032022 338.726674,66.7529212 304.480929,61.5574334 C288.425326,59.0872525 272.207201,57.8235902 255.962755,57.777059 L253.941165,57.777059 C244.197098,57.777059 236.191599,58.4037521 230.308771,59.0102292 L204.391979,20.7617353 L204.391979,20.6606558 L204.391979,20.6606558 L204.391979,20.6606558 L204.391979,20.5595763 C192.161356,3.47713581 178.798642,0 169.701485,0 Z" id="形状" fill="#FFFFFF" fill-rule="nonzero"></path>
                            <path d="M552.145992,338.131242 C553.844128,320.947722 561.809195,309.080985 577.233931,300.772248 C579.012931,299.801884 580.791931,298.952816 582.550715,298.184612 C596.490287,292.273494 605.150265,278.175668 604.121086,263.069583 L604.121086,261.715117 C603.248236,249.971347 596.721609,239.384638 586.621504,233.3294 C576.5214,227.274162 564.10829,226.506077 553.338731,231.269963 C519.477088,246.310597 484.988753,276.533376 479.631538,330.995027 L479.510242,332.06647 C477.367356,353.960296 475.163823,376.25844 470.312005,394.210165 L432.002864,434.075931 C422.150987,435.387196 412.172901,435.448328 402.305698,434.257874 C382.211087,432.236284 363.369863,445.942668 360.943954,465.996846 C359.734258,475.701274 362.481648,485.484156 368.566726,493.139945 C374.651804,500.795734 383.562322,505.679956 393.289404,506.691465 C438.431522,511.60393 473.122016,503.618647 499.362262,482.311082 C541.411346,448.166417 547.112232,390.288279 552.125776,339.222901 L552.145992,338.131242 Z" id="路径" fill="#E6C8A6" fill-rule="nonzero"></path>
                            <path d="M567.651592,228.136169 C586.700359,228.079623 602.569313,242.723141 604.040222,261.715117 L604.040222,263.069583 C605.069401,278.175668 596.409424,292.273494 582.469851,298.184612 C580.711067,298.952816 578.932067,299.801884 577.153068,300.772248 C561.728332,309.080985 553.763265,320.988153 552.065128,338.131242 L551.964049,339.202685 C546.950504,390.268063 541.249619,448.146201 499.200535,482.290866 C478.23664,499.332875 451.875099,507.843771 419.105116,508.070175 C410.42628,508.103933 401.752562,507.638184 393.127677,506.671249 C383.400594,505.65974 374.490077,500.775518 368.404999,493.119729 C362.319921,485.463941 359.572531,475.681058 360.782227,465.97663 C363.026193,447.357781 379.461724,434.17701 397.89863,434.035499 C399.313744,434.035499 400.728857,434.035499 402.143971,434.237658 C407.515645,434.809737 412.91468,435.086437 418.316695,435.06651 C422.877452,435.071605 427.432134,434.733721 431.942216,434.055715 L470.150278,394.210165 C475.002095,376.25844 477.205629,353.960296 479.348515,332.06647 L479.46981,330.995027 C484.827026,276.533376 519.315361,246.310597 553.177003,231.269963 C557.715732,229.247465 562.622183,228.180845 567.590944,228.136169 M567.590944,218.412647 C561.312512,218.493554 555.118417,219.87002 549.396629,222.455828 C522.327531,234.322565 476.316129,264.262322 469.766176,330.044879 L469.64488,331.096106 C467.62329,351.453524 465.601699,372.45785 461.356359,389.297699 L427.312773,424.857478 C424.310645,425.170634 421.294664,425.332566 418.276263,425.34266 C413.259224,425.359472 408.244992,425.103024 403.255845,424.574455 C401.49676,424.386161 399.728362,424.298416 397.959278,424.311648 C374.104509,424.473376 354.009899,441.899487 351.24032,464.74346 C349.740078,477.015525 353.219699,489.377023 360.901301,499.064504 C368.582904,508.751985 379.825899,514.957584 392.116881,516.29402 C401.1123,517.283663 410.156563,517.762874 419.206195,517.732485 C454.341439,517.486759 482.522412,508.349169 505.366386,489.790968 C550.589367,453.058667 556.492412,393.057858 561.6879,340.193264 L561.788979,339.121821 C563.183877,325.091982 569.167785,316.196984 581.822942,309.384224 C583.278487,308.595803 584.814896,307.827599 586.411953,307.140258 C604.10868,299.540156 615.081306,281.598211 613.784289,262.382242 L613.68321,261.027777 C611.829585,236.936011 591.693089,218.360689 567.530296,218.453079 L567.590944,218.412647 Z" id="形状" fill="#3A3C51" fill-rule="nonzero"></path>
                            <g opacity="0.5" transform="translate(481.390322, 228.220821)" fill="#FFFFFF" fill-rule="nonzero" id="路径">
                                <path d="M72.2920794,17.0587649 C90.7207523,8.90811003 112.332339,15.8627637 122.548821,33.2314896 C121.579894,21.5534954 115.022188,11.0654212 104.947517,5.08082595 C94.8728468,-0.903769252 82.5256679,-1.64564869 71.8068977,3.08957397 C40.7148344,16.8970377 9.13758946,43.5213857 -6.13641439e-16,90.0179692 C14.4139409,52.5578956 43.5652772,29.8150015 72.2920794,17.0587649 Z"></path>
                            </g>
                            <path d="M544.322437,397.24255 C539.895153,414.891036 525.764235,447.236486 482.866083,432.276715 C444.597373,418.934217 453.189133,467.351312 463.337518,501.536409 C476.413098,497.445601 488.595596,490.915344 499.240966,482.290866 C525.703587,460.801359 537.772483,429.911454 544.322437,397.24255 Z" id="路径" fill="#D3B08E" fill-rule="nonzero"></path>
                            <path d="M182.700312,525.997655 C171.576885,526.166594 160.492655,524.639615 149.829249,521.469292 C78.9522833,499.676546 56.5126278,413.415275 52.2470716,353.394251 C52.2470716,353.394251 45.0502092,304.370679 74.08025,197.125298 C103.110291,89.8799175 141.075762,39.2592892 141.075762,39.2592892 C161.291668,10.0068734 177.929358,14.2522136 189.593936,30.7686087 L221.717011,77.972749 C221.717011,77.972749 252.930369,71.5440909 301.832646,78.9633283 C350.734922,86.3825658 376.773009,102.777665 376.773009,102.777665 L440.453112,60.1827518 C459.193257,45.3442769 490.062945,44.3132657 489.355388,80.3986577 C488.647832,116.48405 488.789343,148.586908 492.246263,237.739053 C495.703183,326.891198 498.08866,305.684713 505.588761,399.688675 C514.928509,516.799418 415.850355,524.380382 333.753561,525.027291 L182.700312,525.997655 Z" id="路径" fill="#FFFFFF" fill-rule="nonzero"></path>
                            <path d="M169.580189,17.8102131 C177.302665,17.8102131 184.034562,22.8641895 189.654584,30.7686087 L221.717011,77.972749 C232.402162,76.1659236 243.226069,75.306776 254.06246,75.4053289 C270.068076,75.3328903 286.054489,76.5225768 301.873077,78.9633283 C350.815786,86.3623499 376.773009,102.777665 376.773009,102.777665 L440.453112,60.1827518 C447.653402,54.3051756 456.558695,50.9089695 465.84429,50.4993329 C478.78247,50.4993329 489.779922,58.6867748 489.355388,80.3986577 C488.647832,116.463834 488.789343,148.586908 492.246263,237.739053 C495.703183,326.891198 498.08866,305.684713 505.588761,399.688675 C514.928509,516.799418 415.850355,524.380382 333.753561,525.027291 L182.700312,525.997655 C171.576885,526.166594 160.492655,524.639615 149.829249,521.469292 C78.9522833,499.676546 56.5126278,413.415275 52.2470716,353.394251 C52.2470716,353.394251 45.0502092,304.370679 74.08025,197.125298 C103.110291,89.8799175 141.075762,39.2592892 141.075762,39.2592892 C151.628465,24.0164962 161.291668,17.8708608 169.580189,17.8102131 M169.580189,8.08636235 L169.580189,8.08636235 C157.167623,8.08636235 144.937,16.758986 133.191559,33.5988356 C130.381548,37.3994259 93.4268719,88.6871791 64.7607174,194.578094 C36.5797446,298.629362 41.9369596,349.047831 42.6243004,354.405046 C44.5448115,380.94853 50.3872083,420.025876 67.3281374,455.909109 C85.7448277,494.986455 112.571335,520.175474 147.019238,530.707961 C158.632943,534.16587 170.705312,535.835961 182.821608,535.660858 L333.834425,534.629847 C390.540041,534.245745 453.997769,530.586666 489.597979,491.75191 C509.813885,469.696357 518.466293,438.442567 515.312612,398.859823 C512.219578,359.883556 509.955397,340.597582 508.176397,325.112198 C505.669625,303.541827 504.01192,289.289613 502.010546,237.354951 C498.634489,150.426556 498.391898,117.474629 499.119671,80.5806008 C499.382478,67.2381029 495.96599,56.8875591 489.011718,49.7917762 C482.838992,43.680721 474.40153,40.4141343 465.722995,40.7754821 C454.401114,41.1697983 443.509634,45.2115585 434.671363,52.2985485 L376.308043,91.3961105 C365.836204,85.9984636 341.112151,75.0818744 303.288191,69.3405572 C286.959916,66.8324998 270.460833,65.6023347 253.941165,65.6612623 C244.702292,65.6861141 235.473503,66.273462 226.306021,67.4200461 L197.700514,25.3103142 L197.700514,25.3103142 L197.700514,25.3103142 C187.592561,11.15918 176.857915,8.22787369 169.620621,8.2683055 L169.580189,8.08636235 Z" id="形状" fill="#3A3C51" fill-rule="nonzero"></path>
                            <path d="M489.314957,80.3986577 C490.022513,44.3132657 459.152825,45.3442769 440.41268,60.1827518 L376.773009,102.777665 C376.773009,102.777665 350.734922,86.3623499 301.771998,78.9633283 C252.809074,71.5643068 221.717011,77.972749 221.717011,77.972749 L189.593936,30.7686087 C178.333677,14.1511341 161.291668,10.0068734 141.075762,39.2795051 C141.075762,39.2795051 111.924426,76.8608741 84.1882029,163.769053 C102.948564,176.990256 117.989198,185.703311 142.47066,188.028141 C179.240337,191.467272 215.817399,179.72288 243.711916,155.520964 C264.874069,137.106831 296.732123,138.419834 316.307234,158.512918 C349.158081,192.313913 401.8003,216.815591 462.791688,222.455828 C472.442478,223.334834 482.131485,223.726173 491.821729,223.628351 C489.779922,144.543727 488.647832,114.482675 489.314957,80.3986577 Z" id="路径" fill="#E6C8A6" fill-rule="nonzero"></path>
                            <path d="M481.754208,90.627906 C482.017015,118.323697 485.59523,143.330773 490.992877,193.870537 C489.517116,136.315853 488.728695,109.853233 489.314957,80.4188736 C490.022513,44.3334816 459.152825,45.3644928 440.41268,60.2029677 L438.613465,61.415922 C456.747132,51.2271055 481.370106,50.4184693 481.754208,90.627906 Z" id="路径" fill="#F2E3D2" fill-rule="nonzero"></path>
                            <g opacity="0.5" transform="translate(100.805678, 17.814278)" fill="#FFFFFF" fill-rule="nonzero" id="路径">
                                <path d="M40.5531072,37.1123378 C64.0844216,9.23460357 84.623782,12.4893644 98.8759956,27.9545324 L88.7680427,12.9947621 C77.5077831,-3.62271257 60.4657745,-7.76697327 40.2498686,21.4854425 C40.2498686,21.4854425 21.6310193,45.5423705 0,99.5390551 C22.2374965,56.4185279 40.5531072,37.1123378 40.5531072,37.1123378 Z"></path>
                            </g>
                            <circle id="椭圆形" fill="#FFC0C0" fill-rule="nonzero" cx="123.811378" cy="210.265637" r="42.311891"></circle>
                            <path d="M123.467708,167.953746 C124.878396,167.934044 126.28906,167.99479 127.692832,168.135689 C150.147728,170.219064 167.02252,189.547534 166.056998,212.078192 C165.091475,234.60885 146.624991,252.422815 124.074185,252.577528 C122.663497,252.59723 121.252833,252.536484 119.849061,252.395585 C97.4070163,250.316751 80.5335183,231.011281 81.47695,208.492914 C82.4203817,185.974547 100.849561,168.148122 123.386844,167.953746 M123.386844,160.655804 L123.386844,160.655804 C96.7593128,160.633882 74.8633746,181.637026 73.7774404,208.242414 C72.6915062,234.847802 92.8029189,257.565531 119.343663,259.713743 C120.981152,259.855254 122.638856,259.936118 124.29656,259.915902 C150.944493,259.993418 172.89345,239.004733 174.007343,212.379978 C175.121236,185.755223 155.002107,163.006547 128.440821,160.857963 C126.803333,160.716452 125.125412,160.635588 123.487924,160.655804 L123.386844,160.655804 Z" id="形状" fill="#FFFFFF" fill-rule="nonzero"></path>
                            <circle id="椭圆形" fill="#FFC0C0" fill-rule="nonzero" cx="432.225238" cy="242.449359" r="42.6353455"></circle>
                            <path d="M431.881568,199.814014 C433.298984,199.794331 434.716374,199.855076 436.126908,199.995957 C458.745439,202.083429 475.755836,221.537307 474.806849,244.232128 C473.857861,266.926948 455.282751,284.892813 432.568909,285.084705 C431.174011,285.084705 429.738682,285.084705 428.303353,284.902761 C405.681651,282.814107 388.670984,263.354499 389.625491,240.65664 C390.579998,217.958782 409.164378,199.996043 431.881568,199.814014 M431.881568,192.516072 L431.881568,192.516072 C405.312461,192.780237 383.603574,213.804702 382.488697,240.351722 C381.373819,266.898742 401.243472,289.669355 427.696876,292.160272 C429.35458,292.321999 431.0325,292.382647 432.690204,292.382647 C459.338454,292.225559 481.167253,271.170225 482.28519,244.544971 C483.403126,217.919718 463.416183,195.108632 436.874897,192.718231 C435.217193,192.576719 433.539272,192.495856 431.881568,192.516072 L431.881568,192.516072 Z" id="形状" fill="#FFFFFF" fill-rule="nonzero"></path>
                            <circle id="椭圆形" fill="#3A3C51" fill-rule="nonzero" cx="198.812389" cy="167.569644" r="23.1067804"></circle>
                            <path d="M75.5560111,371.042736 L25.3599168,288.521409 C7.16560155,259.653095 9.79366931,233.31177 29.1200753,217.240125 L29.1200753,217.240125 C48.4666972,201.0674 77.9010562,214.126875 93.9727014,233.412849 L118.474379,262.907856" id="路径" fill="#FFFFFF" fill-rule="nonzero"></path>
                            <path d="M75.6570906,375.91477 C73.9607021,375.911341 72.3892957,375.022155 71.5128299,373.569725 L21.2156561,291.048397 C2.15205689,260.886265 3.93105661,231.87644 26.0068258,213.500182 C36.1147788,205.090365 49.6998675,202.947479 64.2148879,207.43541 C77.3435694,211.751364 88.9842608,219.691703 97.7935076,230.340032 L122.295186,259.835038 C123.857147,261.910772 123.515763,264.846919 121.519218,266.508908 C119.522674,268.170896 116.573307,267.974077 114.8153,266.061537 L90.2327588,236.566531 C75.151693,218.372215 48.6890722,207.314115 32.2333248,220.980067 C14.2613845,235.939837 13.2303733,260.198925 29.4839616,285.913557 L79.7811354,368.515748 C80.6699841,370.003393 80.7055015,371.850257 79.8745072,373.370976 C79.043513,374.891696 77.4700237,375.859321 75.7379543,375.91477 L75.6570906,375.91477 Z" id="路径" fill="#3A3C51" fill-rule="nonzero"></path>
                            <path d="M297.930976,190.292322 L294.170817,231.108236 C293.038727,243.419723 282.74883,252.51688 271.165116,251.445437 L271.165116,251.445437 C259.601618,250.39421 251.131154,239.558485 252.263244,227.18635 L256.023403,186.370436" id="路径" fill="#FFC0C0" fill-rule="nonzero"></path>
                            <path d="M273.247355,256.398334 C272.43068,256.414692 271.613771,256.380935 270.80123,256.297255 C263.831497,255.641544 257.450493,252.110381 253.193176,246.553188 C248.848075,240.935215 246.809226,233.871544 247.492291,226.802248 L251.252449,185.986334 L260.956084,186.875834 L257.195925,227.691748 C256.734698,232.293293 258.043041,236.897794 260.855004,240.56928 C263.472572,244.002616 267.395438,246.19825 271.69073,246.634052 C280.565513,247.462904 288.53058,240.306473 289.420079,230.683702 L293.180238,189.867788 L302.863657,190.777504 L299.103498,231.573202 C298.116031,245.249624 286.952621,255.967893 273.247355,256.398334 Z" id="路径" fill="#3A3C51" fill-rule="nonzero"></path>
                            <path d="M261.966879,193.648162 C253.265494,193.586988 244.874094,190.409731 238.314269,184.692516 C236.488288,182.850677 236.425306,179.901203 238.170999,177.983096 C239.916692,176.064989 242.859046,175.850708 244.864223,177.495654 C245.450484,178.021267 258.206721,189.160231 272.964332,180.891926 L274.561389,163.526463 C274.959386,160.987486 277.261098,159.194273 279.820304,159.429357 C282.37951,159.66444 284.316019,161.846968 284.244807,164.415962 L282.425376,184.187118 C282.305584,185.648167 281.523508,186.973973 280.302706,187.78555 C274.91,191.520149 268.525917,193.561367 261.966879,193.648162 L261.966879,193.648162 Z" id="路径" fill="#3A3C51" fill-rule="nonzero"></path>
                            <path d="M297.930976,196.943355 C289.097259,197.047144 280.60176,193.551145 274.399661,187.259936 C273.359234,186.232786 272.83272,184.794143 272.964332,183.33805 L274.783764,163.546679 C274.843278,161.73629 275.902249,160.108371 277.533133,159.320166 C279.164018,158.531962 281.097549,158.713609 282.553097,159.79177 C284.008644,160.869932 284.74589,162.666597 284.467182,164.456394 L282.870126,181.801642 C296.010465,192.778878 310.485053,184.005175 311.172394,183.621073 C312.651272,182.601957 314.570902,182.479121 316.167612,183.301433 C317.764321,184.123745 318.779131,185.757828 318.808327,187.553608 C318.837523,189.349388 317.876369,191.015597 316.307234,191.889379 C310.735791,195.167702 304.395291,196.911514 297.930976,196.943355 L297.930976,196.943355 Z" id="路径" fill="#3A3C51" fill-rule="nonzero"></path>
                            <path d="M278.826945,76.254397 L276.016934,98.4918934 C275.251013,103.247444 277.140192,108.04208 280.944187,110.996995 C284.748182,113.95191 289.861115,114.596464 294.279454,112.678085 C298.697793,110.759705 301.717812,106.58394 302.1561,101.787086 L304.986327,79.3474306 L301.852861,78.8420329 C293.645204,77.7301581 285.963159,76.88109 278.826945,76.254397 Z" id="路径" fill="#D3B08E" fill-rule="nonzero"></path>
                            <path d="M224.688749,91.8812922 C224.100119,96.5542158 226.049178,101.186205 229.801734,104.032435 C233.55429,106.878665 238.54024,107.506725 242.881425,105.680031 C247.22261,103.853338 250.259501,99.8494084 250.848131,95.1764849 L253.334687,75.4053289 C244.37721,75.4458446 235.431042,76.046757 226.548612,77.2045445 L224.688749,91.8812922 Z" id="路径" fill="#D3B08E" fill-rule="nonzero"></path>
                            <path d="M333.207731,85.6143614 L330.700959,105.506813 C329.935038,110.262364 331.824218,115.056999 335.628213,118.011915 C339.432208,120.96683 344.54514,121.611384 348.963479,119.693004 C353.381819,117.774624 356.401838,113.598859 356.840125,108.802005 L358.720205,93.8422351 C351.503126,91.1333037 342.911366,88.2424291 333.207731,85.6143614 Z" id="路径" fill="#D3B08E" fill-rule="nonzero"></path>
                            <path d="M380.169281,208.223831 C378.56999,208.260858 377.248397,207.438132 376.1261,206.20224 C363.695075,192.512998 342.810287,188.836777 333.95572,187.644038 C331.920959,187.388126 330.264297,185.885423 329.811754,183.885185 C329.359212,181.884948 330.207689,179.815471 331.934129,178.708608 C354.960046,164.072292 385.486064,169.692314 386.779882,169.934905 C389.31212,170.539048 390.922019,173.027192 390.435405,175.584617 C389.948792,178.142042 387.537611,179.865075 384.960451,179.497028 C373.369518,177.671219 361.526907,178.249243 350.168877,181.195164 C361.570647,184.348846 376.449554,190.25189 383.929439,200.501354 C385.503722,202.674269 385.024701,205.71108 382.857996,207.293899 C382.069822,207.855965 381.136293,208.17884 380.169281,208.223831 Z" id="路径" fill="#3A3C51" fill-rule="nonzero"></path>
                            <path d="M376.773009,102.777665 C389.548945,109.787527 401.280274,118.552 411.62523,128.815752 C397.248282,116.222006 394.19912,93.9188103 411.261344,79.7113169 L376.773009,102.777665 Z" id="路径" fill="#D3B08E" fill-rule="nonzero"></path>
                            <path d="M221.717011,77.972749 C221.717011,77.972749 208.010626,80.115635 183.832403,89.6575426 C183.832403,89.6575426 216.885409,76.3352606 202.61298,49.8928557 L221.717011,77.972749 Z" id="路径" fill="#D3B08E" fill-rule="nonzero"></path>
                            <path d="M419.044468,450.086928 L419.044468,450.086928 C419.634102,445.493226 421.48886,441.153793 424.401683,437.553067 L463.357734,389.034893 L196.709935,351.37266 L216.016125,435.915578 C218.890806,448.550203 215.852322,461.806228 207.761658,471.927428 C199.670994,482.048627 187.409733,487.932167 174.452223,487.910888 L174.452223,487.910888 C162.257368,487.989952 150.111341,486.363677 138.366831,483.079287 C106.627858,473.941697 83.6221576,454.150325 67.1461943,429.850807 C81.0951693,470.444346 106.102245,507.722476 149.040829,521.246917 C159.943758,524.578365 171.301248,526.181374 182.700312,525.997655 L333.692913,524.966644 C401.618357,524.481462 481.167947,519.205111 501.323205,451.077508 C488.000923,463.752881 470.554596,472.142482 450.904735,477.68164 C442.735112,479.986061 433.954278,478.027808 427.537933,472.470504 C421.121588,466.9132 417.929893,458.501846 419.044468,450.086928 L419.044468,450.086928 Z" id="路径" fill="#040000" fill-rule="nonzero" opacity="0.1"></path>
                            <path d="M224.966008,296.022233 L353.679882,296.022233 C358.313551,296.022233 362.069882,299.778564 362.069882,304.412233 L362.069882,470.485102 C362.069882,475.118771 358.313551,478.875102 353.679882,478.875102 L224.966008,478.875102 C220.332339,478.875102 216.576008,475.118771 216.576008,470.485102 L216.576008,304.412233 C216.576008,299.778564 220.332339,296.022233 224.966008,296.022233 Z" id="矩形" fill="#AEC1CF" fill-rule="nonzero" transform="translate(289.322945, 387.448667) rotate(-17.760000) translate(-289.322945, -387.448667) "></path>
                            <path d="M317.358461,283.466521 C326.27087,283.407925 334.192104,289.13609 336.927458,297.618566 L380.250144,432.903408 C381.901496,438.058546 381.436005,443.658673 378.956191,448.470423 C376.476377,453.282172 372.185631,456.910891 367.028942,458.557393 L267.324094,490.478308 C262.171847,492.14744 256.566646,491.692566 251.750952,489.214514 C246.935258,486.736462 243.306886,482.439939 241.67011,477.277322 L198.347423,341.99248 C196.696072,336.837342 197.161563,331.237215 199.641377,326.425466 C202.121191,321.613716 206.411937,317.984998 211.568626,316.338495 L311.273474,284.478227 C313.235074,283.852932 315.279472,283.525828 317.338245,283.507864 M317.338245,273.784013 L317.338245,273.784013 C314.290989,273.806592 311.264723,274.290522 308.362383,275.219343 L208.657535,307.140258 C192.820707,312.22865 184.092914,329.177753 189.149186,345.024866 L232.471873,480.329924 C234.906473,487.942261 240.266544,494.274991 247.371998,497.933882 C254.477452,501.592774 262.745735,502.277847 270.35648,499.838273 L370.061328,467.897141 C385.871145,462.792104 394.569282,445.856958 389.509029,430.03275 L346.186343,294.747908 C342.211748,282.172433 330.485774,273.671307 317.297814,273.804229 L317.338245,273.784013 Z" id="形状" fill="#3A3C51" fill-rule="nonzero"></path>
                            <path d="M261.413687,282.964154 L397.060106,282.964154 C401.655116,282.964154 405.380106,286.689145 405.380106,291.284154 L405.380106,465.219499 C405.380106,469.814508 401.655116,473.539499 397.060106,473.539499 L261.413687,473.539499 C256.818678,473.539499 253.093687,469.814508 253.093687,465.219499 L253.093687,291.284154 C253.093687,286.689145 256.818678,282.964154 261.413687,282.964154 Z" id="矩形" fill="#FFEA8D" fill-rule="nonzero" transform="translate(329.236896, 378.251826) rotate(2.560000) translate(-329.236896, -378.251826) "></path>
                            <path d="M276.562763,280.556342 L277.71507,280.556342 L389.40795,285.54967 C400.554474,286.094695 409.15089,295.568851 408.61306,306.715724 L401.90138,456.657098 C401.438466,467.418852 392.618637,475.927498 381.847201,476.00372 L380.81619,476.00372 L269.143526,471.010391 C263.77645,470.779689 258.721902,468.422283 255.095839,464.458648 C251.469777,460.495013 249.570422,455.251134 249.81712,449.884769 L256.528801,299.943395 C256.992119,289.173885 265.823922,280.662268 276.603195,280.596774 M276.603195,270.872923 L276.603195,270.872923 C260.653905,270.976033 247.585497,283.564376 246.885813,299.498646 L240.194349,449.440019 C239.463142,465.969185 252.25197,479.969967 268.779639,480.734242 L380.472519,485.72757 L382.029144,485.72757 C397.978434,485.62446 411.046842,473.036117 411.746526,457.101848 L418.458207,307.160474 C419.177917,290.627881 406.383287,276.630646 389.8527,275.866252 L278.180036,270.872923 C277.654422,270.872923 277.128809,270.872923 276.603195,270.872923 L276.603195,270.872923 Z" id="形状" fill="#3A3C51" fill-rule="nonzero"></path>
                            <path d="M350.269956,370.901225 C350.269956,370.901225 345.337275,408.967776 363.491158,426.959932 C374.298406,437.639404 389.020437,443.406872 404.205993,442.910282 L405.964777,414.608014 L350.269956,370.901225 Z" id="路径" fill="#040000" fill-rule="nonzero" opacity="0.1"></path>
                            <path d="M432.568909,292.847613 L371.617953,340.718878 C351.950029,357.044491 349.235114,386.220772 365.553181,405.894958 L365.553181,405.894958 C373.387019,415.349407 384.658509,421.301176 396.883954,422.43878 C409.109398,423.576383 421.285512,419.806463 430.729261,411.95973 L460.70945,387.033518" id="路径" fill="#FFFFFF" fill-rule="nonzero"></path>
                            <path d="M401.658789,427.46533 C399.93772,427.482049 398.216969,427.407821 396.503733,427.242955 C375.933716,425.320592 358.540132,411.211713 352.415655,391.480726 C346.291178,371.749739 352.638613,350.271674 368.504703,337.039583 L429.576955,289.087454 C430.941997,288.004087 432.781318,287.731256 434.402063,288.371734 C436.022808,289.012212 437.178747,290.468695 437.434449,292.19254 C437.690151,293.916385 437.006769,295.645699 435.641727,296.729066 L374.69077,344.620547 C363.32986,354.096399 357.887253,368.91342 360.413126,383.490182 C362.938999,398.066944 373.049612,410.188891 386.936394,415.289802 C400.823177,420.390713 416.376397,417.695638 427.737307,408.219787 L457.636632,383.232928 C459.712366,381.670966 462.648513,382.01235 464.310502,384.008895 C465.97249,386.00544 465.775671,388.954806 463.863131,390.712813 L433.882943,415.639025 C424.843292,423.207866 413.448485,427.389775 401.658789,427.46533 L401.658789,427.46533 Z" id="路径" fill="#3A3C51" fill-rule="nonzero"></path>
                        </g>
                    </g>
                </g>
            </g>
        </g>
    </g>
</svg>